<svg width="606" height="103" viewBox="0 0 606 103" fill="none" xmlns="http://www.w3.org/2000/svg">
<path d="M40.625 9.09091L28.5511 81.8182H8.80682L17.8977 27.2727H17.4716L0 36.7898L2.69886 20.0284L22.4432 9.09091H40.625Z" fill="#E0E0E0"/>
<path d="M74.8757 83.8068C68.2469 83.8068 62.7663 82.2917 58.4339 79.2614C54.1016 76.2074 51.1068 71.8277 49.4496 66.1222C47.7924 60.4167 47.6503 53.5748 49.0234 45.5966C50.3965 37.5947 52.8468 30.8002 56.3743 25.2131C59.9254 19.6259 64.3288 15.3764 69.5845 12.4645C74.8639 9.55256 80.7943 8.09659 87.3757 8.09659C93.9572 8.09659 99.4022 9.55256 103.711 12.4645C108.02 15.3764 111.014 19.6259 112.695 25.2131C114.376 30.7765 114.554 37.571 113.228 45.5966C111.902 53.5985 109.464 60.4522 105.913 66.1577C102.385 71.8632 97.9699 76.2311 92.6669 79.2614C87.3876 82.2917 81.4571 83.8068 74.8757 83.8068ZM77.5746 67.7557C80.9837 67.7557 84.0376 65.9801 86.7365 62.429C89.459 58.8542 91.4714 53.2434 92.7734 45.5966C93.6257 40.625 93.8269 36.553 93.3771 33.3807C92.9273 30.1847 91.9567 27.8291 90.4652 26.3139C88.9737 24.7751 87.0916 24.0057 84.8189 24.0057C81.4098 24.0057 78.3085 25.7457 75.5149 29.2259C72.745 32.6823 70.7327 38.1392 69.478 45.5966C68.6257 50.7102 68.4363 54.9006 68.9098 58.1676C69.3833 61.4347 70.3776 63.8494 71.8928 65.4119C73.4079 66.9744 75.3018 67.7557 77.5746 67.7557Z" fill="#E0E0E0"/>
<path d="M145.934 82.8125C140.086 82.8125 134.996 81.9129 130.664 80.1136C126.355 78.2907 123.136 75.8168 121.005 72.6918C118.874 69.5431 118.14 66.0038 118.803 62.0739C119.324 59.0909 120.543 56.3565 122.461 53.8707C124.402 51.3849 126.793 49.3135 129.634 47.6563C132.475 45.9991 135.494 44.9337 138.69 44.4602V43.8921C134.76 43.1818 131.694 41.3352 129.492 38.3523C127.314 35.3693 126.545 31.8655 127.184 27.8409C127.799 24.0294 129.551 20.6439 132.44 17.6847C135.352 14.7017 139.045 12.358 143.519 10.6534C148.017 8.94887 152.942 8.09659 158.292 8.09659C163.642 8.09659 168.271 8.9607 172.177 10.6889C176.083 12.3935 178.995 14.7372 180.913 17.7202C182.83 20.6795 183.481 24.053 182.866 27.8409C182.203 31.9129 180.297 35.4285 177.148 38.3878C174 41.3471 170.271 43.1818 165.962 43.8921V44.4602C169.016 44.9337 171.68 45.9991 173.952 47.6563C176.249 49.2898 177.942 51.3494 179.031 53.8352C180.12 56.321 180.404 59.0672 179.883 62.0739C179.22 65.9801 177.314 69.5076 174.165 72.6563C171.017 75.7813 166.992 78.2552 162.092 80.0781C157.215 81.901 151.829 82.8125 145.934 82.8125ZM148.207 69.1761C150.077 69.1761 151.793 68.7974 153.356 68.0398C154.918 67.2585 156.22 66.205 157.262 64.8793C158.327 63.5298 159.002 62.0265 159.286 60.3693C159.57 58.6648 159.405 57.1615 158.789 55.8594C158.174 54.5573 157.191 53.5393 155.842 52.8054C154.516 52.0715 152.918 51.7046 151.048 51.7046C149.177 51.7046 147.449 52.0833 145.863 52.8409C144.3 53.5748 142.998 54.5928 141.957 55.8949C140.915 57.197 140.252 58.6885 139.968 60.3693C139.684 62.0502 139.85 63.5653 140.465 64.9148C141.104 66.2405 142.099 67.2822 143.448 68.0398C144.798 68.7974 146.384 69.1761 148.207 69.1761ZM153.32 38.0682C154.978 38.0682 156.493 37.7249 157.866 37.0384C159.263 36.3281 160.423 35.3693 161.346 34.1619C162.269 32.9546 162.861 31.6051 163.121 30.1136C163.382 28.5748 163.252 27.2254 162.731 26.0653C162.21 24.8816 161.37 23.9583 160.21 23.2955C159.049 22.6326 157.653 22.3011 156.019 22.3011C154.386 22.3011 152.859 22.6444 151.438 23.331C150.041 23.9938 148.858 24.9171 147.887 26.1009C146.94 27.2609 146.336 28.5985 146.076 30.1136C145.816 31.6288 145.958 32.9901 146.502 34.1974C147.047 35.3812 147.899 36.3281 149.059 37.0384C150.243 37.7249 151.663 38.0682 153.32 38.0682Z" fill="#E0E0E0"/>
<path d="M227.14 27.2727L224.725 41.4773H188.787L191.202 27.2727H227.14ZM200.293 14.2045H219.895L211.586 64.2756C211.467 65.0331 211.491 65.6724 211.657 66.1932C211.822 66.6903 212.154 67.0691 212.651 67.3296C213.172 67.5663 213.858 67.6847 214.711 67.6847C215.279 67.6847 215.977 67.6136 216.806 67.4716C217.634 67.3059 218.262 67.1875 218.688 67.1165L219.256 80.8949C218.262 81.179 216.924 81.4986 215.243 81.8537C213.586 82.2325 211.657 82.4811 209.455 82.5994C204.862 82.8125 201.122 82.3272 198.233 81.1435C195.369 79.9598 193.38 78.1132 192.267 75.6037C191.178 73.0706 190.989 69.91 191.699 66.1222L200.293 14.2045Z" fill="#E0E0E0"/>
<path d="M252.077 51.1364L246.964 81.8182H227.362L239.435 9.09091H258.327L253.64 37.6421H254.208C255.984 34.1619 258.469 31.4512 261.665 29.5099C264.862 27.545 268.484 26.5625 272.532 26.5625C276.367 26.5625 279.563 27.4385 282.12 29.1903C284.677 30.9422 286.488 33.357 287.553 36.4347C288.619 39.5123 288.82 43.0398 288.157 47.0171L282.333 81.8182H262.731L267.844 51.1364C268.271 48.4375 267.927 46.3187 266.815 44.7798C265.726 43.241 263.938 42.4716 261.452 42.4716C259.843 42.4716 258.375 42.8267 257.049 43.5369C255.747 44.2235 254.658 45.2178 253.782 46.5199C252.93 47.7983 252.361 49.3371 252.077 51.1364Z" fill="#E0E0E0"/>
<path d="M319.78 12.7841L321.911 0H327.734L325.604 12.7841H319.78ZM332.706 12.7841L334.837 0H340.661L338.53 12.7841H332.706ZM306.854 90.9091L308.984 78.125H314.808L312.678 90.9091H306.854ZM319.78 90.9091L321.911 78.125H327.734L325.604 90.9091H319.78ZM291.584 81.8182L303.658 9.09091H335.192C340.732 9.09091 345.265 9.83665 348.793 11.3281C352.344 12.8196 354.853 14.9266 356.321 17.6492C357.812 20.3717 358.25 23.5795 357.635 27.2727C357.161 29.9242 356.143 32.3509 354.581 34.5526C353.042 36.7306 351.089 38.5772 348.722 40.0923C346.378 41.5838 343.762 42.6136 340.874 43.1818L340.732 43.8921C343.857 43.9867 346.579 44.768 348.899 46.2358C351.219 47.6799 352.924 49.6922 354.013 52.2727C355.102 54.8296 355.362 57.8125 354.794 61.2216C354.131 65.1989 352.509 68.7382 349.929 71.8395C347.348 74.9408 343.999 77.3793 339.879 79.1548C335.76 80.9304 331.072 81.8182 325.817 81.8182H291.584ZM314.027 66.0511H323.26C326.527 66.0511 329.096 65.4238 330.966 64.169C332.86 62.9143 333.984 61.0796 334.339 58.6648C334.624 56.9602 334.482 55.5161 333.913 54.3324C333.345 53.1487 332.386 52.2491 331.037 51.6335C329.687 51.018 327.995 50.7102 325.959 50.7102H316.442L314.027 66.0511ZM318.572 38.4943H326.669C328.374 38.4943 329.936 38.2221 331.357 37.6776C332.777 37.1331 333.949 36.34 334.872 35.2983C335.795 34.2566 336.375 33.0019 336.612 31.5341C336.967 29.2614 336.423 27.5332 334.979 26.3494C333.558 25.1657 331.641 24.5739 329.226 24.5739H320.845L318.572 38.4943Z" fill="#F7931A"/>
<path d="M378.338 82.5284C374.455 82.5284 371.046 81.5104 368.111 79.4744C365.199 77.4384 363.104 74.349 361.825 70.206C360.571 66.063 360.464 60.8428 361.506 54.5455C362.595 47.964 364.5 42.6136 367.223 38.4943C369.969 34.375 373.118 31.3565 376.669 29.4389C380.244 27.5213 383.831 26.5625 387.429 26.5625C390.128 26.5625 392.412 27.036 394.283 27.983C396.177 28.9063 397.68 30.1492 398.793 31.7117C399.905 33.2505 400.663 34.9432 401.065 36.7898H401.349L405.966 9.09091H425.568L413.494 81.8182H394.034L395.526 72.8693H395.099C394.034 74.7159 392.673 76.3731 391.016 77.8409C389.382 79.285 387.5 80.4332 385.369 81.2855C383.239 82.1141 380.895 82.5284 378.338 82.5284ZM388.068 67.4716C389.867 67.4716 391.501 66.9508 392.969 65.9091C394.437 64.8438 395.679 63.3523 396.697 61.4347C397.715 59.4934 398.438 57.197 398.864 54.5455C399.313 51.8466 399.349 49.5384 398.97 47.6207C398.591 45.6795 397.834 44.1998 396.697 43.1818C395.585 42.1402 394.129 41.6193 392.33 41.6193C390.53 41.6193 388.909 42.1402 387.464 43.1818C386.02 44.1998 384.801 45.6795 383.807 47.6207C382.836 49.5384 382.126 51.8466 381.676 54.5455C381.226 57.2443 381.167 59.5644 381.499 61.5057C381.854 63.4233 382.588 64.9029 383.7 65.9446C384.813 66.9626 386.269 67.4716 388.068 67.4716Z" fill="#E0E0E0"/>
<path d="M438.175 82.6705C434.718 82.6705 431.747 82.1023 429.261 80.9659C426.799 79.8059 425 78.054 423.864 75.7102C422.751 73.3428 422.502 70.3599 423.118 66.7614C423.615 63.7784 424.55 61.2334 425.923 59.1264C427.296 57.0194 429.001 55.2912 431.037 53.9418C433.073 52.5923 435.357 51.5625 437.891 50.8523C440.447 50.1184 443.146 49.6449 445.987 49.4318C449.065 49.1951 451.562 48.8992 453.48 48.544C455.398 48.1889 456.83 47.7036 457.777 47.0881C458.724 46.4725 459.292 45.6439 459.482 44.6023V44.4602C459.695 43.0398 459.316 41.9508 458.345 41.1932C457.398 40.4356 456.072 40.0568 454.368 40.0568C452.521 40.0568 450.923 40.4593 449.574 41.2642C448.248 42.0691 447.337 43.3239 446.839 45.0284H428.8C429.557 41.714 431.108 38.66 433.452 35.8665C435.819 33.0492 438.956 30.8002 442.862 29.1193C446.792 27.4148 451.48 26.5625 456.925 26.5625C460.807 26.5625 464.216 27.0242 467.152 27.9474C470.088 28.8471 472.514 30.1136 474.432 31.7472C476.373 33.357 477.734 35.251 478.516 37.429C479.321 39.5833 479.51 41.9271 479.084 44.4602L472.834 81.8182H454.51L455.788 74.1477H455.362C453.942 76.1837 452.344 77.8291 450.568 79.0838C448.816 80.3385 446.899 81.25 444.815 81.8182C442.756 82.3864 440.542 82.6705 438.175 82.6705ZM446.697 70.3125C448.165 70.3125 449.609 70.0047 451.03 69.3892C452.45 68.7737 453.67 67.8859 454.688 66.7259C455.705 65.5658 456.357 64.1572 456.641 62.5L457.351 57.9546C456.83 58.1676 456.25 58.3688 455.611 58.5582C454.995 58.724 454.344 58.8897 453.658 59.0554C452.995 59.2211 452.285 59.375 451.527 59.5171C450.793 59.6591 450.036 59.8011 449.254 59.9432C447.692 60.1799 446.378 60.5706 445.312 61.1151C444.247 61.6359 443.419 62.2869 442.827 63.0682C442.235 63.8258 441.868 64.678 441.726 65.625C441.513 67.1165 441.856 68.2765 442.756 69.1051C443.679 69.91 444.993 70.3125 446.697 70.3125Z" fill="#E0E0E0"/>
<path d="M482.2 81.8182L491.291 27.2727H510.893L501.802 81.8182H482.2ZM501.944 21.5909C499.293 21.5909 497.15 20.715 495.517 18.9631C493.883 17.1875 493.279 15.0805 493.706 12.642C494.132 10.1563 495.434 8.04925 497.612 6.32102C499.79 4.56913 502.205 3.69319 504.856 3.69319C507.531 3.69319 509.662 4.56913 511.248 6.32102C512.834 8.04925 513.426 10.1563 513.024 12.642C512.645 15.0805 511.367 17.1875 509.189 18.9631C507.034 20.715 504.619 21.5909 501.944 21.5909Z" fill="#E0E0E0"/>
<path d="M543.466 9.09091L531.392 81.8182H511.79L523.864 9.09091H543.466Z" fill="#E0E0E0"/>
<path d="M549.973 102.273C547.701 102.273 545.582 102.095 543.617 101.74C541.652 101.409 539.936 100.947 538.468 100.355L545.073 86.4347C546.588 87.0028 547.985 87.3698 549.263 87.5355C550.565 87.7012 551.713 87.6065 552.708 87.2514C553.702 86.8963 554.519 86.2216 555.158 85.2273L555.797 84.233L546.067 27.2727H565.811L568.297 65.0568H568.865L584.135 27.2727H605.442L575.755 86.3636C574.239 89.3703 572.346 92.0691 570.073 94.4602C567.824 96.875 565.054 98.7808 561.763 100.178C558.472 101.574 554.543 102.273 549.973 102.273Z" fill="#E0E0E0"/>
</svg>
